DataType=double
version=3
OpenSimVersion=4.5
endheader
time	ground_force_2_vx	ground_force_2_vy	ground_force_2_vz	ground_force_2_px	ground_force_2_py	ground_force_2_pz	ground_moment_2_mx	ground_moment_2_my	ground_moment_2_mz	ground_force_1_vx	ground_force_1_vy	ground_force_1_vz	ground_force_1_px	ground_force_1_py	ground_force_1_pz	ground_moment_1_mx	ground_moment_1_my	ground_moment_1_mz
3.02	0.2478947408491887	-1.351238477379468	-0.1561091630192504	0.6725170316187085	0.01038340430110678	0.5568505863319697	-0.01761308933730099	-0.0002986594917455676	0.08110229026153948	-53.17000369357343	649.3641536728958	49.62192037321825	0.8316483798683019	0.01038340430110678	0.3980956643486219	-0.7309390666163869	2.052987320280909	15.55370742824232
3.025	0.3069369310100596	-0.9966454218186414	-0.1363924076736787	0.6833688994286885	0.01038340430110678	0.557044437864151	-0.01142557303021796	-0.001892634462048626	0.08557640844971437	-51.13152858309311	644.5261118144227	48.38575548390824	0.8258283230559925	0.01038340430110678	0.3979218725914646	-0.9041489793225059	1.752094855133494	17.10108735777545
3.03	0.346698605959034	-0.7079108006522574	-0.1169160953993966	0.6943574174445449	0.01038340430110678	0.5572731671414209	-0.006501487011791873	-0.003096013391066563	0.08781866265250593	-49.02657661995028	640.3150172222495	47.20899254209994	0.8200178155295482	0.01038340430110678	0.3977547464078041	-1.099768835396565	1.471700935630025	18.47917563404041
3.035	0.3701754727103461	-0.4777304479855502	-0.09823949833543821	0.7054761430167942	0.01038340430110678	0.5575413652411985	-0.002688101678679722	-0.003959973689818153	0.08817584143091339	-46.86459656676602	636.7068544042924	46.09237715843992	0.8142162733938941	0.01038340430110678	0.3975943731198782	-1.314718714568396	1.212077835079338	19.69671302114583
3.04	0.3801608226244406	-0.2986413328329718	-0.08076475983903464	0.7167195279468294	0.01038340430110678	0.5578538727848187	0.0001670044955091043	-0.004533969370904875	0.08697018698914272	-44.65528257871559	633.6705696380009	45.03498391576244	0.8084231092300738	0.01038340430110678	0.3974407067773037	-1.546025812742062	0.9729953819916068	20.76397523401691
3.045	0.3792098707104401	-0.1633070649046431	-0.06476129374879669	0.7280826777330275	0.01038340430110678	0.5582155900366527	0.002211018788236707	-0.004864686404510501	0.08449673223048504	-42.40796360420959	631.1704431904445	44.0348723570876	0.8026377451688502	0.01038340430110678	0.3972935717755346	-1.790875347235138	0.7538031293590802	21.69235437860289
3.05	0.3696202889856757	-0.06473400309653243	-0.05038879821453435	0.7395610752323775	0.01038340430110678	0.5586312766749838	0.003582271365544898	-0.004995352098581887	0.08102211873988086	-40.13106106507408	629.168238383282	43.08969337496495	0.7968596219837638	0.01038340430110678	0.3971526692173277	-2.046646286524282	0.5535120680237166	22.49396424097443
3.055	0.3534255961824524	0.003573086096366751	-0.03771845267751139	0.7511502749748048	0.01038340430110678	0.559105346048182	0.004407733854561613	-0.004965329130083351	0.07678453913706118	-37.83163276285258	627.6250561078598	42.19720747853616	0.7910882045175949	0.01038340430110678	0.3970175859986523	-2.310933882887479	0.3708735897903174	23.18127858180639
3.06	0.3323984106039246	0.04750719452795238	-0.0267520156303469	0.7628455754122233	0.01038340430110678	0.5596416590797069	0.004801464914006459	-0.004809931502780612	0.0719944955782138	-35.51501485077578	626.5028448454666	41.35568593953577	0.7853229838135526	0.01038340430110678	0.3968878065031187	-2.581561532391742	0.2044541406808815	23.76680830536653
3.065	0.3080609410130695	0.07229891741786787	-0.01743866599473343	0.7746416773068395	0.01038340430110678	0.5602433233263988	0.004863838937390952	-0.004560407327767718	0.06683611458521033	-33.1845690487752	625.7655303985794	40.56417510649587	0.7795634763564803	0.01038340430110678	0.3967627266835745	-2.856584956528967	0.05270429458645376	24.26282180311343
3.07	0.2817004686072488	0.08249240676155978	-0.009689534848924097	0.7865323372348786	0.01038340430110678	0.5609125029959651	0.004681406751437578	-0.004244041412747687	0.06146880503649454	-30.8415406169121	625.3797556201326	39.82261670348795	0.7738092208484257	0.01038340430110678	0.3966416702027483	-3.134291486599307	-0.08597866033252699	24.68111074359382
3.075	0.2543879499826058	0.08195048139589289	-0.003389959195351011	0.7985100257745561	0.01038340430110678	0.5616502459511558	0.004327251283045008	-0.003884338763207387	0.05602908966257814	-28.4850330219132	625.3152565078799	39.13183171312288	0.7680597729557951	0.01038340430110678	0.396523906204229	-3.413196369016371	-0.2131950751270113	25.03280096646568
3.08	0.2269982379256303	0.07388256556555461	0.001590441915137575	0.8105656003341426	0.01038340430110678	0.562456333822531	0.003861716028458417	-0.003501257946005532	0.05063248009773746	-26.11210531740601	625.5449339781308	38.49338930333142	0.7623146984802748	0.01038340430110678	0.396408668198256	-3.692036945491414	-0.3304943723813389	25.32820597904469
3.085	0.2002307702629791	0.06088971693503709	0.005389712114196143	0.8226880027315158	0.01038340430110678	0.5633291612683226	0.003333399196143283	-0.003111470865578808	0.04537530230343567	-23.71799475473219	626.0447006943168	37.90939248116875	0.7565735654301274	0.01038340430110678	0.3962951734806137	-3.969764695963726	-0.4393336287757131	25.57671945005333
3.09	0.1746299116337484	0.04502154108951117	0.008147318791490221	0.8348639915361102	0.01038340430110678	0.5642656501095038	0.002780321187184853	-0.002728632921128279	0.0403364141571233	-21.29645720639541	626.7931860703056	37.38221669494449	0.7508359355083826	0.01038340430110678	0.3961826424628415	-4.24553468581324	-0.5410434482372596	25.78674279558958
3.095	0.1506044260984964	0.02784032621082133	0.009999491904689961	0.847077918806915	0.01038340430110678	0.5652612034883319	0.002231187565811865	-0.002363653991935388	0.03557878763927569	-18.84020355505923	627.7713714619858	36.91423562335576	0.7451013555941163	0.01038340430110678	0.3960703172815561	-4.518691991579853	-0.6368012939014535	25.96564395667047
3.1	0.128445777465906	0.01048836445318102	0.01107589249684615	0.859311560191007	0.01038340430110678	0.5663097043191181	0.001706683945513987	-0.002024964870132179	0.03115094862156076	-16.34139843165964	628.9622073976757	36.50756162130138	0.7393693498749043	0.01038340430110678	0.3959574790753007	-4.788755063569859	-0.7276123562877298	26.11974367489453
3.105	0.1083450912591601	-0.006244825175258484	0.01149738005794099	0.8715440063785861	0.01038340430110678	0.5674035611082748	0.001220752959517846	-0.00171877530827412	0.02708827602051211	-13.7921832592932	630.3502428920278	36.16382002964035	0.7336394133933848	0.01038340430110678	0.3958434633682067	-5.055396469470573	-0.8142978542065845	26.25432610939583
3.11	0.0904086901806771	-0.02185787218991209	0.01137467992903929	0.8837516226452573	0.01038340430110678	0.5685338027267313	0.0007818160282297981	-0.001449319912136329	0.02341416360066073	-11.18518661078978	631.9212788297241	35.88396906219161	0.7279110078976231	0.01038340430110678	0.3957276730783343	-5.318421836570928	-0.8974904266162548	26.37367134113905
3.115	0.07467215916042313	-0.03607728690730028	0.01080778602912602	0.8959080816649637	0.01038340430110678	0.5696902219576302	0.0003939134695212232	-0.001219087902942104	0.02014104730957966	-8.513987873547427	633.6620455155551	35.66817088901852	0.7221835610305752	0.01038340430110678	0.395609588770747	-5.577747973000028	-0.9776359908943405	26.48110782213648
3.12	0.06111292035001359	-0.04880264920717536	0.009885964088622856	0.9079844729760784	0.01038340430110678	0.5708615656798218	5.774551623893842e-05	-0.00102903278409322	0.01727130105650498	-5.773503802453805	635.5598988696679	35.51571482200153	0.7164564700535316	0.01038340430110678	0.3954887758958547	-5.833381101551885	-1.055001148625136	26.57908297096648
3.125	0.04966131055269063	-0.06005779105203146	0.008688244551173341	0.9199494904725023	0.01038340430110678	0.5720357674744254	-0.0002283957750082166	-0.0008787582219126899	0.01479800470730386	-2.960271743303121	637.6025289350382	35.42499003868048	0.710729111465586	0.01038340430110678	0.3953648888861845	-6.085395946644634	-1.12968496759609	26.66924992874365
3.13	0.04021016013946088	-0.06994805330532472	0.007284312251755409	0.9317696971294751	0.01038340430110678	0.5732002163729156	-0.0004678077404927095	-0.0007666769777990023	0.012705589751691	-0.07260822248803678	639.7776764516027	35.39350277160202	0.7050008580474796	0.01038340430110678	0.3952376721230049	-6.333916157970259	-1.201633813234053	26.7525680704532
3.135	0.03262287949891096	-0.07862335240099583	0.005735712679157956	0.9434098639314956	0.01038340430110678	0.574342053533219	-0.0006646708948467861	-0.0006901405426421314	0.01097037049400951	2.889372513205714	642.0728568185712	35.41793075350761	0.6992711050130288	0.01038340430110678	0.3951069579216194	-6.579096299882852	-1.270657896281476	26.82941429120408
3.14	0.02674007082543994	-0.0862465596230777	0.004097303311796807	0.9548333777303617	0.01038340430110678	0.5754484869749733	-0.0008234513920291064	-0.0006455381930462745	0.009560971516594186	5.923887461735451	644.4750949621175	35.49420561597057	0.6935393070823145	0.01038340430110678	0.3949726618145341	-6.821105428149279	-1.336448368816935	26.89970139632364
